<svg width="1600" height="900" viewBox="0 0 1600 900" fill="none" xmlns="http://www.w3.org/2000/svg">
    <style>
        @font-face {
            font-family: 'Neue Machina';
            font-style: normal;
            font-weight: 700;
            src: url('/fonts/neue-machina-bold.ttf') format('truetype');
        }
    </style>
    <rect width="1600" height="900" fill="#43385D"/>
    <g transform="translate(466 370) scale(4)">
        <path d="M20 3C10.6114 3 3 10.6114 3 20C3 24.114 4.462 27.888 6.89455 30.8275L3.46364 37H20C29.3886 37 37 29.3886 37 20C37 10.6114 29.3886 3 20 3ZM6.09091 20C6.09091 17.249 6.90666 14.5599 8.43501 12.2725C9.96336 9.98519 12.1357 8.20242 14.6772 7.14968C17.2188 6.09693 20.0154 5.82148 22.7135 6.35817C25.4116 6.89485 27.89 8.21957 29.8352 10.1648C31.7804 12.11 33.1051 14.5884 33.6418 17.2865C34.1785 19.9846 33.9031 22.7812 32.8503 25.3228C31.7976 27.8643 30.0148 30.0366 27.7275 31.565C25.4401 33.0933 22.751 33.9091 20 33.9091H8.71818L10.6763 30.3824L9.89736 29.5602C7.449 26.9798 6.0862 23.5571 6.09091 20Z" fill="#FF8754"/>
        <path d="M14.406 22.3796L13.7959 21L11 22.2051L11.6101 23.5831C12.3225 25.1931 13.4957 26.5632 14.9858 27.5253C16.4759 28.4875 18.2182 29 19.9992 29C21.7803 29 23.5226 28.4875 25.0127 27.5253C26.5028 26.5632 27.6759 25.1931 28.3884 23.5831L29 22.2051L26.2041 21.0015L25.594 22.3796C25.1193 23.4535 24.3371 24.3674 23.3434 25.0092C22.3498 25.6511 21.1878 25.9929 20 25.9929C18.8122 25.9929 17.6502 25.6511 16.6566 25.0092C15.6629 24.3674 14.8807 23.4535 14.406 22.3796Z" fill="white"/>
    </g>
    <text x="658" y="510" font-family="'Neue Machina', Arial, sans-serif" font-size="96" font-weight="700" letter-spacing="-3">
        <tspan fill="#FF8754">Добро</tspan><tspan fill="white">Хаб</tspan>
    </text>
</svg>
